<svg width="50" height="50" viewBox="0 0 50 50" fill="none" xmlns="http://www.w3.org/2000/svg">
<path d="M25 0C38.8071 0 50 11.1929 50 25C50 38.8071 38.8071 50 25 50C11.1929 50 0 38.8071 0 25C0 11.1929 11.1929 0 25 0ZM14.0625 23.4375C13.1996 23.4375 12.5 24.1371 12.5 25C12.5 25.8629 13.1996 26.5625 14.0625 26.5625H32.1653L25.4576 33.2701C24.8475 33.8803 24.8475 34.8697 25.4576 35.4799C26.0678 36.09 27.0572 36.09 27.6674 35.4799L37.0424 26.1049C37.6525 25.4947 37.6525 24.5053 37.0424 23.8951L27.6674 14.5201C27.0572 13.91 26.0678 13.91 25.4576 14.5201C24.8475 15.1303 24.8475 16.1197 25.4576 16.7299L32.1653 23.4375H14.0625Z" fill="black"/>
</svg>
