<svg width="50" height="50" viewBox="0 0 50 50" fill="none" xmlns="http://www.w3.org/2000/svg">
<path d="M25 0C11.1929 0 0 11.1929 0 25C0 38.8071 11.1929 50 25 50C38.8071 50 50 38.8071 50 25C50 11.1929 38.8071 0 25 0ZM35.9375 23.4375C36.8004 23.4375 37.5 24.1371 37.5 25C37.5 25.8629 36.8004 26.5625 35.9375 26.5625H17.8347L24.5424 33.2701C25.1525 33.8803 25.1525 34.8697 24.5424 35.4799C23.9322 36.09 22.9428 36.09 22.3326 35.4799L12.9576 26.1049C12.3475 25.4947 12.3475 24.5053 12.9576 23.8951L22.3326 14.5201C22.9428 13.91 23.9322 13.91 24.5424 14.5201C25.1525 15.1303 25.1525 16.1197 24.5424 16.7299L17.8347 23.4375H35.9375Z" fill="black"/>
</svg>
